<?xml version="1.0" standalone="no"?>
<!DOCTYPE svg PUBLIC "-//W3C//DTD SVG 20010904//EN"
 "http://www.w3.org/TR/2001/REC-SVG-20010904/DTD/svg10.dtd">
<svg version="1.0" xmlns="http://www.w3.org/2000/svg"
 width="260.000000pt" height="260.000000pt" viewBox="0 0 260.000000 260.000000"
 preserveAspectRatio="xMidYMid meet">
<metadata>
Created by potrace 1.14, written by Peter Selinger 2001-2017
</metadata>
<g transform="translate(0.000000,260.000000) scale(0.100000,-0.100000)"
fill="#000000" stroke="none">
<path d="M1071 2554 c-347 -72 -615 -326 -703 -667 -16 -64 -21 -113 -22 -222
0 -151 8 -191 66 -339 103 -260 333 -457 621 -532 4 -1 16 -2 27 -3 28 -2 73
-93 74 -151 1 -42 -5 -53 -92 -166 -110 -145 -136 -198 -129 -262 3 -24 14
-56 24 -71 24 -32 147 -101 180 -101 58 0 113 77 98 137 -3 14 -19 38 -36 54
-25 23 -27 29 -16 41 37 37 149 198 163 235 l17 43 42 -94 c23 -52 57 -118 75
-147 27 -44 30 -56 21 -76 -46 -102 67 -191 159 -124 46 33 70 80 70 135 0 54
-2 57 -67 164 -42 66 -178 380 -170 389 3 2 35 15 72 29 38 13 87 35 111 48
40 22 44 23 111 10 104 -19 178 -51 209 -87 30 -37 91 -77 116 -77 75 0 117
88 79 163 -18 35 -18 37 -1 37 10 0 32 12 49 26 43 36 44 102 2 157 -38 50
-93 92 -147 113 -24 9 -44 18 -44 19 0 1 14 33 31 70 84 186 102 385 52 585
-37 149 -123 300 -233 411 -128 128 -266 204 -460 251 -67 16 -275 17 -349 2z"/>
</g>
</svg>
